<?xml version="1.0" encoding="UTF-8"?>
<svg width="200px" height="159px" viewBox="0 0 200 159" version="1.1" xmlns="http://www.w3.org/2000/svg" xmlns:xlink="http://www.w3.org/1999/xlink">
    <!-- Generator: Sketch 53.1 (72631) - https://sketchapp.com -->
    <title>love</title>
    <desc>Created with Sketch.</desc>
    <g id="love" stroke="none" stroke-width="1" fill="none" fill-rule="evenodd">
        <path d="M188.036319,83.4551043 C172.95307,104.310538 143.60763,129.49217 100,159 C54.9999441,127.799961 25.1874259,101.71306 10.5624455,80.7392969 C7.8871802,77.3118986 5.64894899,73.5267553 3.9315244,69.4676379 C1.31050813,63.8705542 2.84217094e-14,58.7146749 2.84217094e-14,54 C0.0524183031,53.9979033 0.104809129,53.9958076 0.157172508,53.9937131 C0.0530506252,52.6761856 -1.42108547e-14,51.3442881 -1.42108547e-14,50 C-1.42108547e-14,22.3857625 22.3857625,-1.42108547e-14 50,-1.42108547e-14 C77.6142375,-1.42108547e-14 100,22.3857625 100,50 C100,50.3341089 99.996723,50.6674524 99.9901993,51.0000001 C99.9934662,51 99.9967331,51 100,51 C100,23.3857625 122.385763,1 150,1 C177.614237,1 200,23.3857625 200,51 C200,52.0060388 199.970288,53.0051379 199.911693,53.9964677 C199.94112,53.9976448 199.970556,53.9988222 200,54 C200,57.747712 199.244212,61.7246797 197.732635,65.9309033 C195.696823,72.4459427 192.36394,78.3881212 188.036319,83.4551043 Z" id="Combined-Shape" fill="#868686"></path>
    </g>
</svg>